# xmcd
#
# Track frame offsets: 
#        150
#        8748
#        18167
#        30823
#        41194
#        53630
#        65389
#        77581
#        87949
#        98994
#        109655
#        120375
#        130968
#        140011
#        149274
#        156127
#        166257
#        177120
#        188046
#        196637
#        208930
#        219725
#        229446
#        240474
#
# Disc length: 3351 seconds
#
# Revision: 0
# Processed by: cddbd v1.5.2PL0 Copyright (c) Steve Scherf et al.
# Submitted via: ExactAudioCopyFreeDBPlugin 1.0
#
DISCID=3e0d1518
DTITLE=Buck Owens - Tall Dark Stranger - CD 05
DYEAR=2012
DGENRE=Country
TTITLE0=Too Old To Cut The Mustard
TTITLE1=Wham Bam
TTITLE2=Pfft You Were (Was) Gone
TTITLE3=You're A Real Good Friend
TTITLE4=Tobacco White Lightning And Women Blues No. 2
TTITLE5=I Won't Go Huntin' With You Jake (But I'll Go Chanin' Wimmin)
TTITLE6=Cigareets, Whuskey And Wild, Wild Women
TTITLE7=Beautiful Morning Glory
TTITLE8=I'll Still Be Waiting For You
TTITLE9=Daddy Frank (The Guitar Man)
TTITLE10=Today I Started Loving You Again
TTITLE11=The Fightin' Side Of Me
TTITLE12=Silver Wings
TTITLE13=Okie From Muskogee
TTITLE14=The Legend Of Bonnie And Clyde
TTITLE15=Hungry Eyes
TTITLE16=Swinging Doors
TTITLE17=I Take A Lot Of Pride In What I Am
TTITLE18=Mama Tried
TTITLE19=Made In Japan
TTITLE20=Arms Full Of Empty
TTITLE21=Ain't It Amazing, Gracie
TTITLE22=Looking Back To See
TTITLE23=You Ain't Gonna Have Ol' Buck To Kick Around
EXTD=
EXTT0=
EXTT1=
EXTT2=
EXTT3=
EXTT4=
EXTT5=
EXTT6=
EXTT7=
EXTT8=
EXTT9=
EXTT10=
EXTT11=
EXTT12=
EXTT13=
EXTT14=
EXTT15=
EXTT16=
EXTT17=
EXTT18=
EXTT19=
EXTT20=
EXTT21=
EXTT22=
EXTT23=
PLAYORDER=
